<svg width="36" height="39" viewBox="0 0 36 39" fill="none" xmlns="http://www.w3.org/2000/svg">
<path d="M32.2781 3.84922H27.9248V2.39812C27.9248 2.01326 27.772 1.64417 27.4998 1.37204C27.2277 1.0999 26.8586 0.947021 26.4737 0.947021C26.0889 0.947021 25.7198 1.0999 25.4477 1.37204C25.1755 1.64417 25.0227 2.01326 25.0227 2.39812V3.84922H10.5117V2.39812C10.5117 2.01326 10.3588 1.64417 10.0867 1.37204C9.81453 1.0999 9.44544 0.947021 9.06059 0.947021C8.67573 0.947021 8.30664 1.0999 8.03451 1.37204C7.76237 1.64417 7.60949 2.01326 7.60949 2.39812V3.84922H3.2562C2.48649 3.84922 1.7483 4.15498 1.20404 4.69925C0.65977 5.24351 0.354004 5.9817 0.354004 6.75141V35.7733C0.354004 36.5431 0.65977 37.2812 1.20404 37.8255C1.7483 38.3698 2.48649 38.6755 3.2562 38.6755H32.2781C33.0478 38.6755 33.786 38.3698 34.3303 37.8255C34.8746 37.2812 35.1803 36.5431 35.1803 35.7733V6.75141C35.1803 5.9817 34.8746 5.24351 34.3303 4.69925C33.786 4.15498 33.0478 3.84922 32.2781 3.84922ZM7.60949 6.75141V8.20251C7.60949 8.58736 7.76237 8.95645 8.03451 9.22859C8.30664 9.50072 8.67573 9.6536 9.06059 9.6536C9.44544 9.6536 9.81453 9.50072 10.0867 9.22859C10.3588 8.95645 10.5117 8.58736 10.5117 8.20251V6.75141H25.0227V8.20251C25.0227 8.58736 25.1755 8.95645 25.4477 9.22859C25.7198 9.50072 26.0889 9.6536 26.4737 9.6536C26.8586 9.6536 27.2277 9.50072 27.4998 9.22859C27.772 8.95645 27.9248 8.58736 27.9248 8.20251V6.75141H32.2781V12.5558H3.2562V6.75141H7.60949ZM32.2781 35.7733H3.2562V15.458H32.2781V35.7733ZM19.9438 21.9879C19.9438 22.4184 19.8162 22.8393 19.577 23.1972C19.3378 23.5552 18.9979 23.8341 18.6001 23.9989C18.2024 24.1636 17.7648 24.2067 17.3425 24.1227C16.9203 24.0388 16.5325 23.8315 16.228 23.527C15.9236 23.2226 15.7163 22.8348 15.6323 22.4126C15.5484 21.9903 15.5915 21.5527 15.7562 21.155C15.921 20.7572 16.1999 20.4173 16.5579 20.1781C16.9158 19.9389 17.3367 19.8113 17.7672 19.8113C18.3444 19.8113 18.8981 20.0406 19.3063 20.4488C19.7145 20.857 19.9438 21.4106 19.9438 21.9879ZM27.9248 21.9879C27.9248 22.4184 27.7972 22.8393 27.558 23.1972C27.3188 23.5552 26.9789 23.8341 26.5812 23.9989C26.1834 24.1636 25.7458 24.2067 25.3236 24.1227C24.9013 24.0388 24.5135 23.8315 24.2091 23.527C23.9047 23.2226 23.6974 22.8348 23.6134 22.4126C23.5294 21.9903 23.5725 21.5527 23.7372 21.155C23.902 20.7572 24.181 20.4173 24.5389 20.1781C24.8969 19.9389 25.3177 19.8113 25.7482 19.8113C26.3255 19.8113 26.8791 20.0406 27.2873 20.4488C27.6955 20.857 27.9248 21.4106 27.9248 21.9879ZM11.9628 29.2434C11.9628 29.6739 11.8351 30.0947 11.5959 30.4527C11.3568 30.8106 11.0168 31.0896 10.6191 31.2544C10.2214 31.4191 9.78372 31.4622 9.36149 31.3782C8.93926 31.2942 8.55142 31.0869 8.24701 30.7825C7.9426 30.4781 7.7353 30.0903 7.65131 29.6681C7.56733 29.2458 7.61043 28.8082 7.77518 28.4104C7.93992 28.0127 8.21891 27.6728 8.57685 27.4336C8.9348 27.1944 9.35563 27.0668 9.78613 27.0668C10.3634 27.0668 10.9171 27.2961 11.3253 27.7043C11.7335 28.1125 11.9628 28.6661 11.9628 29.2434ZM19.9438 29.2434C19.9438 29.6739 19.8162 30.0947 19.577 30.4527C19.3378 30.8106 18.9979 31.0896 18.6001 31.2544C18.2024 31.4191 17.7648 31.4622 17.3425 31.3782C16.9203 31.2942 16.5325 31.0869 16.228 30.7825C15.9236 30.4781 15.7163 30.0903 15.6323 29.6681C15.5484 29.2458 15.5915 28.8082 15.7562 28.4104C15.921 28.0127 16.1999 27.6728 16.5579 27.4336C16.9158 27.1944 17.3367 27.0668 17.7672 27.0668C18.3444 27.0668 18.8981 27.2961 19.3063 27.7043C19.7145 28.1125 19.9438 28.6661 19.9438 29.2434ZM27.9248 29.2434C27.9248 29.6739 27.7972 30.0947 27.558 30.4527C27.3188 30.8106 26.9789 31.0896 26.5812 31.2544C26.1834 31.4191 25.7458 31.4622 25.3236 31.3782C24.9013 31.2942 24.5135 31.0869 24.2091 30.7825C23.9047 30.4781 23.6974 30.0903 23.6134 29.6681C23.5294 29.2458 23.5725 28.8082 23.7372 28.4104C23.902 28.0127 24.181 27.6728 24.5389 27.4336C24.8969 27.1944 25.3177 27.0668 25.7482 27.0668C26.3255 27.0668 26.8791 27.2961 27.2873 27.7043C27.6955 28.1125 27.9248 28.6661 27.9248 29.2434Z" fill="white"/>
</svg>
