<svg width="45" height="27" viewBox="0 0 45 27" fill="none" xmlns="http://www.w3.org/2000/svg">
<path d="M43.5576 3.83492C43.3262 3.71089 43.0655 3.65197 42.8033 3.66442C42.541 3.67688 42.287 3.76026 42.0684 3.90566L35.6183 8.19728V3.65354C35.6183 2.88383 35.3126 2.14564 34.7683 1.60138C34.224 1.05711 33.4858 0.751343 32.7161 0.751343H3.69419C2.92448 0.751343 2.18629 1.05711 1.64202 1.60138C1.09776 2.14564 0.791992 2.88383 0.791992 3.65354V23.9689C0.791992 24.7386 1.09776 25.4768 1.64202 26.0211C2.18629 26.5653 2.92448 26.8711 3.69419 26.8711H32.7161C33.4858 26.8711 34.224 26.5653 34.7683 26.0211C35.3126 25.4768 35.6183 24.7386 35.6183 23.9689V19.4342L42.0684 23.7349C42.308 23.8905 42.5882 23.9719 42.8738 23.9689C43.2587 23.9689 43.6278 23.816 43.8999 23.5439C44.172 23.2717 44.3249 22.9027 44.3249 22.5178V5.10463C44.3231 4.84354 44.2508 4.58778 44.1158 4.36432C43.9808 4.14085 43.7879 3.95796 43.5576 3.83492ZM32.7161 23.9689H3.69419V3.65354H32.7161V23.9689ZM41.4227 19.8061L35.6183 15.9371V11.6854L41.4227 7.82544V19.8061Z" fill="white"/>
</svg>
